PathFileType	4	(X/Y/Z)	s10c0103.trc
DataRate	CameraRate	NumFrames	NumMarkers	Units	OrigDataRate	OrigDataStartFrame	OrigNumFrames
200	200	7	50	mm	200	1750	2000
Frame#	Time	racr			lacr			c7			jug			rlel			rdr			llel			ldr			s2			lic			ric			lasi			rasi			rpsi			lpsi			rgt			lgt			rth1			rth2			rth3			rth4			rlfc			rmfc			rsh1			rsh2			rsh3			rsh4			rlmal			rmmal			rcal			rtoe			rmt5			lth1			lth2			lth4			lth3			llfc			lmfc			llmal			lmmal			lcal			lmt5			lsh1			lsh2			lsh3			lsh4			ltoe			SBIKE			LBIKE			RBIKE			
		X1	Y1	Z1	X2	Y2	Z2	X3	Y3	Z3	X4	Y4	Z4	X5	Y5	Z5	X6	Y6	Z6	X7	Y7	Z7	X8	Y8	Z8	X9	Y9	Z9	X10	Y10	Z10	X11	Y11	Z11	X12	Y12	Z12	X13	Y13	Z13	X14	Y14	Z14	X15	Y15	Z15	X16	Y16	Z16	X17	Y17	Z17	X18	Y18	Z18	X19	Y19	Z19	X20	Y20	Z20	X21	Y21	Z21	X22	Y22	Z22	X23	Y23	Z23	X24	Y24	Z24	X25	Y25	Z25	X26	Y26	Z26	X27	Y27	Z27	X28	Y28	Z28	X29	Y29	Z29	X30	Y30	Z30	X31	Y31	Z31	X32	Y32	Z32	X33	Y33	Z33	X34	Y34	Z34	X35	Y35	Z35	X36	Y36	Z36	X37	Y37	Z37	X38	Y38	Z38	X39	Y39	Z39	X40	Y40	Z40	X41	Y41	Z41	X42	Y42	Z42	X43	Y43	Z43	X44	Y44	Z44	X45	Y45	Z45	X46	Y46	Z46	X47	Y47	Z47	X48	Y48	Z48	X49	Y49	Z49	X50	Y50	Z50	
1750	8.7500	435.037229	1290.004976	-74.539031	420.576056	1290.353500	-367.415933	376.690837	1328.957224	-221.770503	399.540838	1186.984193	-232.480382	500.964957	1043.851246	17.912096	640.578201	875.959751	-49.950010	481.152278	1036.367413	-477.051293	634.669761	883.033294	-413.366069	-126.474715	1077.109897	-210.348160	35.439728	1106.052216	-364.666983	48.555069	1108.174255	-67.130482	71.777974	1020.607828	-328.221314	58.033378	1022.619019	-71.126595	-88.463204	1135.749100	-154.733716	-82.770357	1147.647141	-265.677822	-51.885575	980.588316	-19.292778	-32.110328	963.587235	-407.462580	26.920846	849.501882	-4.993467	93.513369	792.614600	-22.358953	119.684101	713.187109	-40.178964	123.276012	815.472383	-24.903400	193.425798	634.321991	-59.319825	178.932872	621.269980	-173.373876	155.020853	525.357152	-24.252239	175.630569	439.218637	-35.216172	151.067851	356.176894	-38.752052	205.387522	441.517097	-59.814940	150.860918	247.679683	-53.441814	169.175209	269.789376	-134.382751	104.080020	217.203355	-101.283204	343.801339	244.233865	-103.575378	271.111062	198.955752	-39.362610	84.171237	901.885741	-409.666763	169.239476	897.644389	-393.325053	178.678273	930.605771	-378.864817	243.749411	849.361300	-387.706218	328.544303	796.009968	-363.007310	313.029648	773.166686	-241.199725	18.105633	575.541553	-378.561599	32.455437	560.642148	-298.407504	-42.947577	581.591423	-334.660684	48.957270	431.131335	-400.540239	221.570598	734.486276	-399.070922	173.740219	660.913067	-388.697470	93.339696	623.362169	-389.441612	193.598889	640.886520	-362.846185	131.469051	397.808909	-345.792553	-217.872874	831.473506	-213.667941	-103.811763	80.404668	-418.213813	-103.821274	80.306178	-18.270832	
1751	8.7550	436.434212	1290.463973	-78.435440	418.374578	1289.945680	-370.584498	376.225705	1328.745740	-223.815530	399.244239	1186.781437	-234.735784	502.279547	1044.813372	17.175266	640.890975	875.654839	-50.249703	479.941705	1035.466688	-478.150208	634.396370	883.286286	-413.595343	-126.681498	1076.555924	-207.218266	34.650326	1106.658036	-363.180268	50.165042	1107.401154	-66.183855	72.555402	1020.583560	-327.716800	59.023783	1021.748960	-70.687440	-89.508698	1136.439408	-150.144770	-82.863692	1147.273629	-262.726001	-50.990659	979.738989	-18.898393	-31.904642	964.955852	-406.154339	24.638147	847.599146	-4.753016	89.780820	788.773893	-21.501176	113.747055	708.637493	-39.144673	120.197835	810.800532	-24.494344	185.588365	627.501449	-58.722580	169.181051	614.408594	-172.799338	148.765205	518.580912	-24.040503	169.372981	432.476522	-35.690818	145.087244	349.689502	-38.760297	198.469105	435.004871	-61.063545	143.658478	241.668602	-53.614922	162.724866	263.973821	-134.489011	97.067273	211.744950	-101.699436	336.996349	235.779214	-103.384095	263.606547	191.277249	-39.393118	86.342540	908.009628	-409.154955	171.648695	906.344398	-392.274331	179.750833	939.358489	-377.286599	247.564250	860.433520	-387.433728	335.175424	807.985184	-361.345034	319.661641	784.591193	-239.667719	27.873205	584.063894	-378.331535	42.113053	568.500007	-298.385231	-32.511283	590.380862	-334.733807	57.439160	438.818932	-400.653289	229.744340	744.750207	-398.511641	182.445213	670.959431	-388.226532	101.998723	632.536823	-388.934175	202.291660	651.032360	-362.455137	138.393540	403.318840	-344.746426	-217.856864	831.501817	-213.651917	-103.813920	80.432476	-418.216552	-103.821889	80.306412	-18.269124	
1752	8.7600	437.633220	1290.995490	-82.405354	416.186405	1289.413774	-373.734553	375.792132	1328.949774	-225.748544	398.084065	1186.851476	-236.886443	503.495326	1045.756060	16.391442	640.666422	874.920410	-51.738971	478.649057	1034.470894	-479.203454	634.158172	883.530006	-413.937291	-125.966494	1077.009942	-205.179322	34.006237	1107.592409	-361.674391	51.944815	1106.775011	-65.394830	73.407442	1021.120307	-327.486002	59.886095	1021.195103	-70.848195	-89.531887	1136.757218	-146.301769	-82.891932	1146.902241	-259.911952	-50.077984	979.154056	-18.698375	-32.284572	966.736827	-404.175369	22.542182	846.168487	-4.235343	86.067239	785.488672	-20.508058	108.227543	704.428397	-37.707471	117.516550	806.691060	-23.951276	177.700299	621.453909	-58.013343	159.560035	608.089584	-171.913173	142.174232	513.036212	-23.741295	162.825544	427.212901	-35.923476	138.979852	344.205255	-38.739078	191.273062	429.721609	-61.808640	136.336322	236.003399	-53.675911	156.284012	258.209551	-134.284322	89.559401	207.052876	-101.875175	329.864691	227.616343	-103.340818	255.819158	184.265021	-39.375662	88.183333	914.232232	-409.228458	173.322823	915.093395	-391.555930	180.297989	948.060825	-375.621832	250.617713	871.507555	-387.166063	341.386343	820.128634	-360.154188	326.366052	796.335298	-238.264214	38.029032	591.923801	-378.203272	53.256501	575.825157	-299.030380	-21.691936	598.506160	-334.908133	66.276074	445.908283	-400.654864	238.081226	754.898573	-397.960509	191.476037	681.108316	-388.143764	111.257708	641.658841	-388.625618	211.361932	661.265961	-361.990420	146.468848	409.074905	-344.605738	-217.830932	831.523537	-213.635377	-103.831504	80.457870	-418.232224	-103.860225	80.308222	-18.309291	
1753	8.7650	438.722330	1291.725665	-86.244854	414.002533	1288.796473	-376.867446	375.545847	1328.706771	-227.724868	397.785522	1186.549064	-238.659233	504.683337	1046.681807	15.462758	640.874247	874.837928	-52.166978	477.324002	1033.404394	-480.456379	633.901540	883.763633	-414.381914	-125.313754	1078.146953	-202.296157	33.382879	1109.036042	-360.135418	53.759700	1106.231960	-64.808559	74.208918	1022.986846	-327.823002	60.761206	1020.965303	-71.307720	-88.077507	1136.511395	-143.578151	-83.032244	1146.859849	-257.092605	-48.929072	978.837802	-19.090305	-32.437106	969.395367	-402.827132	20.842362	844.807504	-3.744642	82.882713	782.511816	-19.242433	102.955316	700.755595	-35.799146	114.845178	802.849830	-23.410450	169.879063	616.080033	-57.144967	149.975467	602.597462	-170.841179	135.045708	508.568998	-23.375054	155.982061	422.821615	-35.948632	132.524623	339.734957	-38.459424	184.041205	425.450424	-62.164009	128.772412	231.268391	-53.726152	148.732942	253.266537	-134.018470	81.820928	203.248138	-102.048652	322.290708	220.074711	-103.194411	247.526659	177.770762	-39.326942	89.085392	919.954379	-408.164574	174.468447	923.732448	-390.805605	180.273190	956.629251	-374.109775	253.158745	882.419110	-386.651463	347.242774	832.395815	-359.112255	332.828619	808.215195	-236.806579	48.675772	599.244293	-378.261584	63.995470	583.206499	-298.649808	-10.588556	606.060051	-334.718107	75.217946	452.414157	-400.296441	245.906900	765.370346	-397.510841	200.206653	690.549030	-387.615006	120.745615	650.361804	-388.274656	220.349570	671.199609	-361.361481	155.020385	414.420527	-344.736260	-217.842939	831.504500	-213.824588	-103.858607	80.456925	-418.255760	-103.895929	80.319696	-18.323871	
1754	8.7700	439.575889	1292.489806	-89.998386	411.826419	1288.081962	-379.937029	375.416026	1328.368209	-229.694265	397.503827	1186.118846	-240.202066	505.733086	1047.582746	14.372690	641.105183	874.800359	-52.501944	476.251545	1032.318310	-481.420193	633.617457	884.038582	-414.940840	-124.455328	1078.216132	-200.395318	32.950332	1110.727556	-358.533818	55.426602	1105.639074	-64.882055	74.771403	1025.175979	-328.343961	61.974336	1020.740386	-71.958708	-86.864302	1136.241586	-140.988502	-82.810129	1146.716785	-254.529999	-47.941222	978.628512	-18.937580	-32.706835	972.636963	-401.559245	19.389422	843.955423	-2.702617	79.888709	780.032304	-17.891213	97.978136	697.560023	-33.624251	112.249052	799.601904	-22.798805	162.155114	611.681910	-56.147656	141.107232	597.818861	-169.915865	127.656147	504.779506	-22.974307	148.977075	419.247114	-35.530572	125.650389	335.876918	-37.973777	176.520039	421.836458	-62.321298	120.950043	227.155205	-53.471586	141.242972	248.531539	-133.601729	73.725759	199.673633	-102.372386	314.462086	213.102074	-103.088203	238.975971	171.809558	-39.252694	90.650334	926.757764	-409.146021	175.240313	932.556513	-390.738971	180.028633	964.946208	-372.732589	255.087139	893.110612	-386.277337	352.703254	844.539970	-358.044640	339.672598	820.400702	-235.710213	59.657890	605.947219	-378.553356	75.022589	589.720761	-299.095892	0.721712	613.130765	-335.032022	84.842942	458.563845	-400.153293	254.021905	775.470940	-397.316917	209.178209	700.517677	-387.207443	130.375919	658.789822	-388.166897	229.615858	681.224310	-360.850912	163.733533	418.979523	-344.495497	-217.791262	831.551409	-213.699356	-103.882292	80.483834	-418.305797	-103.935567	80.324102	-18.372840	
1755	8.7750	440.207531	1293.181231	-93.434137	409.790434	1287.269966	-382.914963	375.478267	1327.602900	-231.468939	397.843986	1185.313184	-241.310137	506.665263	1048.392622	13.168434	641.413315	874.831151	-52.798627	474.467194	1031.145945	-483.141533	633.316223	884.231784	-415.372706	-124.187351	1080.877087	-199.035948	32.658888	1112.703508	-357.004229	57.263185	1105.017654	-64.563857	75.118357	1027.024182	-328.287622	63.168726	1020.480219	-72.772785	-86.147460	1136.503061	-139.267718	-82.730834	1146.867616	-252.059168	-47.090909	977.998623	-18.996827	-33.149829	976.310155	-400.458304	18.004094	843.440179	-1.646220	77.278332	777.976286	-16.491776	93.193387	695.146022	-31.559156	109.814196	796.888587	-22.167472	154.753361	608.108497	-54.958465	132.897298	594.077528	-169.151066	120.070458	501.773646	-22.400838	141.446770	416.012447	-35.067384	118.097370	332.861201	-37.400378	168.846820	418.773493	-61.998399	112.885998	223.667974	-53.324041	133.656407	244.615265	-133.109110	65.363050	196.971766	-102.437437	306.284801	206.493678	-103.015642	230.122624	166.543799	-39.265711	91.414198	933.066777	-409.033875	175.710174	940.888447	-390.062283	179.553780	972.948446	-371.553512	256.613337	903.529086	-385.946838	357.389265	857.772007	-358.509330	346.313314	832.240856	-234.408412	70.909023	612.180826	-378.870439	85.983939	595.777244	-299.546990	11.980359	619.401827	-335.336444	94.802315	464.099106	-399.958019	261.758920	785.869408	-396.695526	218.224493	710.110371	-386.658774	140.396331	666.717827	-387.833353	238.972050	691.267429	-360.364202	172.799082	423.636401	-344.480265	-217.750182	831.584206	-213.635254	-103.893119	80.513042	-418.336263	-103.955635	80.335981	-18.394120	
1756	8.7800	440.689235	1293.703082	-96.531626	407.901837	1286.464855	-385.800864	375.693748	1327.232277	-233.157133	397.295500	1184.743052	-242.324367	507.482134	1049.124779	11.785342	641.564871	874.405204	-53.194655	472.984126	1029.935686	-484.534908	632.991865	884.368915	-415.702331	-124.128336	1080.978107	-196.567497	32.420943	1114.617751	-355.532986	59.167036	1104.275415	-64.274002	75.432252	1029.644081	-328.011624	64.375348	1020.137200	-73.690922	-84.930703	1136.805064	-137.584703	-82.493514	1147.103991	-249.788531	-46.421861	978.175477	-17.915144	-33.839986	980.336676	-399.549788	16.574460	843.105633	-0.579432	74.584587	776.501844	-15.215473	88.680275	693.273632	-29.766391	107.307978	794.802294	-21.800864	147.874633	605.167893	-53.789457	124.925117	591.509045	-168.405663	112.750269	499.302382	-21.735084	133.647512	413.478402	-34.518592	109.839794	330.395002	-36.840337	161.265310	415.982968	-61.194737	104.512340	220.986406	-53.038548	125.494179	241.336958	-132.626759	56.722174	195.151917	-102.387604	297.742886	200.428405	-102.823094	220.854681	161.874857	-39.169048	91.905040	939.392319	-408.925334	175.810554	949.161198	-390.085857	178.808971	980.752388	-370.448505	257.720612	913.699695	-385.750779	361.725898	870.306707	-357.925559	352.362046	845.369784	-233.349853	81.561022	617.648202	-379.262533	97.044047	601.777901	-299.857269	22.952546	624.803191	-335.757952	105.073221	469.152801	-399.810116	269.190789	796.244917	-396.192080	227.323653	719.832780	-386.124355	150.395079	674.629424	-387.688211	248.256593	701.289381	-360.007427	182.347014	427.987823	-344.763492	-217.709506	831.611732	-213.559216	-103.903329	80.513546	-418.326469	-103.941919	80.341785	-18.387572	
